# xmcd
#
# Track frame offsets:
#	150
#	17025
#	39300
#	52425
#	66315
#	83828
#	102353
#	121815
#	142644
#	180703
#
# Disc length: 2517 seconds
#
# Revision: 0
# Processed by: cddbd v1.5.1PL0 Copyright (c) Steve Scherf et al.
# Submitted via: dBpowerAMP V4.0
#
DISCID=8309d30a
DTITLE=Sandusky - Sandusky
DYEAR=1900
DGENRE=
TTITLE0=The Psychonaut
TTITLE1=Drunken Wedding
TTITLE2=Home Is Just A Mile Away
TTITLE3=I Must Not Let It Lead Me
TTITLE4=Took The Right Turn
TTITLE5=Workings Man's Lament
TTITLE6=Death To California
TTITLE7=Everybody's Looking For Something (But Don't Know What It Is)
TTITLE8=I Need A Rest
TTITLE9=Cock Suck 'N Roll
EXTD=
EXTT0=
EXTT1=
EXTT2=
EXTT3=
EXTT4=
EXTT5=
EXTT6=
EXTT7=
EXTT8=
EXTT9=
PLAYORDER=
